# 3ds Max Wavefront OBJ Exporter v0.97b - (c)2007 guruware
# File Created: 05.03.2013 14:42:37

mtllib woodsword.mtl

#
# object Mesh
#

v  0.0000 84.3549 -0.9914
v  2.8789 78.5854 -0.9914
v  -2.8789 78.5854 -0.9914
v  -2.8789 18.5539 -0.9914
v  2.8789 18.5539 -0.9914
v  0.0000 84.3549 1.6652
v  -2.8789 78.5854 1.6652
v  2.8789 78.5854 1.6652
v  -2.8789 18.5539 1.6652
v  2.8789 18.5539 1.6652
v  -2.3851 -0.0000 -0.9914
v  -2.3851 -0.0000 1.6652
v  -2.3851 12.7311 -0.9914
v  -2.3851 12.7311 1.6652
v  11.9024 12.7311 -1.9994
v  11.9024 18.5539 -1.9994
v  11.9024 12.7311 2.6732
v  11.9024 18.5539 2.6732
v  -11.9024 12.7311 2.6732
v  -11.9024 18.5539 2.6732
v  -11.9024 12.7311 -1.9994
v  -11.9024 18.5539 -1.9994
v  2.3851 -0.0000 -0.9914
v  2.3851 12.7311 -0.9914
v  2.3851 -0.0000 1.6652
v  2.3851 12.7311 1.6652
# 26 vertices

vn 0.0000 0.0000 -1.0000
vn 0.0000 -0.0000 1.0000
vn 0.0000 0.0000 1.0000
vn -1.0000 0.0000 -0.0000
vn -1.0000 -0.0000 -0.0000
vn 0.8948 0.4465 -0.0000
vn -1.0000 -0.0000 0.0000
vn 1.0000 0.0000 -0.0000
vn -0.8948 0.4465 0.0000
vn -0.8948 0.4465 -0.0000
vn 1.0000 -0.0000 -0.0000
vn -0.0000 0.0000 1.0000
vn -0.0000 -0.0000 -1.0000
vn 0.0000 -1.0000 -0.0000
vn 0.0000 -1.0000 0.0000
vn -0.0000 1.0000 0.0000
vn -0.0000 1.0000 -0.0000
vn -0.0000 -0.0000 1.0000
# 18 vertex normals

vt 0.0836 0.9658 0.0000
vt 0.0107 0.8822 0.0000
vt 0.1549 0.8819 0.0000
vt 0.1549 0.0144 0.0000
vt 0.0107 0.0144 0.0000
vt 0.7382 0.2055 0.0000
vt 0.7382 0.1521 0.0000
vt 0.9910 0.2055 0.0000
vt 0.9910 0.1521 0.0000
vt 0.2429 0.8960 0.0000
vt 0.2429 0.9890 0.0000
vt 0.1763 0.8960 0.0000
vt 0.1763 0.9890 0.0000
vt 0.3332 0.8787 0.0000
vt 0.2666 0.8787 0.0000
vt 0.3332 0.0120 0.0000
vt 0.2666 0.0120 0.0000
vt 0.2429 0.8787 0.0000
vt 0.1763 0.8787 0.0000
vt 0.2429 0.0120 0.0000
vt 0.1763 0.0120 0.0000
vt 0.2666 0.9890 0.0000
vt 0.2666 0.8960 0.0000
vt 0.3332 0.9890 0.0000
vt 0.3332 0.8960 0.0000
vt 0.4711 0.8703 0.0000
vt 0.3549 0.8703 0.0000
vt 0.4711 0.7760 0.0000
vt 0.3549 0.7760 0.0000
vt 0.9871 0.7516 0.0000
vt 0.9871 0.8691 0.0000
vt 0.5120 0.7516 0.0000
vt 0.5120 0.8691 0.0000
vt 0.3549 0.8940 0.0000
vt 0.4711 0.8940 0.0000
vt 0.3549 0.9883 0.0000
vt 0.4711 0.9883 0.0000
vt 0.9871 0.7257 0.0000
vt 0.5120 0.7257 0.0000
vt 0.9871 0.6314 0.0000
vt 0.5120 0.6314 0.0000
vt 0.9871 0.9905 0.0000
vt 0.5120 0.9905 0.0000
vt 0.9871 0.8962 0.0000
vt 0.5120 0.8962 0.0000
vt 0.7358 0.2301 0.0000
vt 0.9900 0.2301 0.0000
vt 0.7358 0.2837 0.0000
vt 0.9900 0.2837 0.0000
vt 0.7333 0.0204 0.0000
vt 0.9876 0.0204 0.0000
vt 0.7333 0.1166 0.0000
vt 0.9876 0.1166 0.0000
vt 0.6418 0.1188 0.0000
vt 0.6418 0.0226 0.0000
vt 0.6948 0.1188 0.0000
vt 0.6948 0.0226 0.0000
# 57 texture coords

g Mesh
usemtl Material__25
s off
f 1/1/1 2/2/1 3/3/1 
f 3/3/1 2/2/1 4/4/1 
f 2/2/1 5/5/1 4/4/1 
f 6/1/2 7/2/2 8/3/2 
f 7/2/3 9/5/3 8/3/3 
f 8/3/3 9/5/3 10/4/3 
f 11/6/4 12/7/4 13/8/4 
f 12/7/5 14/9/5 13/8/5 
f 2/10/6 1/11/6 8/12/6 
f 8/12/6 1/11/6 6/13/6 
f 7/14/5 3/15/5 9/16/5 
f 9/16/7 3/15/7 4/17/7 
f 2/18/8 8/19/8 5/20/8 
f 5/20/8 8/19/8 10/21/8 
f 1/22/9 3/23/9 6/24/9 
f 6/24/10 3/23/10 7/25/10 
f 15/26/8 16/27/8 17/28/8 
f 17/28/11 16/27/11 18/29/11 
f 17/30/12 18/31/12 19/32/12 
f 19/32/3 18/31/3 20/33/3 
f 19/34/4 20/35/4 21/36/4 
f 21/36/5 20/35/5 22/37/5 
f 21/33/13 22/32/13 15/31/13 
f 15/31/1 22/32/1 16/30/1 
f 17/38/14 19/39/14 15/40/14 
f 15/40/15 19/39/15 21/41/15 
f 16/42/16 22/43/16 18/44/16 
f 18/44/17 22/43/17 20/45/17 
f 23/46/8 24/47/8 25/48/8 
f 25/48/8 24/47/8 26/49/8 
f 25/50/18 26/51/18 12/52/18 
f 12/52/18 26/51/18 14/53/18 
f 11/50/1 13/51/1 23/52/1 
f 23/52/1 13/51/1 24/53/1 
f 25/54/14 12/55/14 23/56/14 
f 23/56/14 12/55/14 11/57/14 
# 0 polygons - 36 triangles

